<svg width="104" height="22" viewBox="0 0 104 22" fill="none" xmlns="http://www.w3.org/2000/svg">
<path fill-rule="evenodd" clip-rule="evenodd" d="M24.5153 6.3107C23.9463 5.50304 20.3831 6.25088 18.6464 6.87906C18.1973 7.02862 17.808 7.29784 18.1374 8.01577C18.4967 8.67386 18.856 9.42169 18.856 9.90031C18.856 12.8617 17.8979 15.6138 17.0894 17.7974C16.5205 19.323 15.9516 20.9084 16.3708 21.3272C16.7301 21.6862 17.2391 21.4768 21.3413 21.2674C21.7605 21.2674 21.9102 21.1776 22 20.6093C22.7786 15.5539 24.5452 10.0499 26.0424 10.0499C26.4915 10.0798 26.7011 10.6481 26.7909 10.7977C27.6593 13.4002 32.2106 9.84048 31.3123 7.23802C30.414 4.69538 27.7491 4.99452 24.5153 9.57126C24.8746 7.38759 24.8147 6.66966 24.5153 6.3107ZM80.8082 12.5028C81.1076 5.65261 73.9213 3.70824 67.9327 7.74655C65.8367 9.27213 64.3395 12.4429 64.3395 15.1052C64.0401 16.6906 62.5429 17.7077 60.1475 18.6051C56.8537 20.0409 53.8594 18.0966 53.56 13.9087C53.56 12.4429 54.1589 10.7977 55.0572 9.42169C56.2549 7.44741 59.5486 6.60984 58.9498 8.70377C58.9498 9.48152 58.0515 9.90031 58.3509 10.9174C58.3509 12.2934 61.0458 12.3831 61.9441 11.0669C64.3395 8.01577 60.7463 5.50304 55.9555 5.95174C51.1646 6.37053 47.272 9.99005 47.272 14.836C47.272 17.7974 41.5828 20.1008 38.5885 18.306C37.6902 17.8573 36.7919 16.6308 37.0913 15.4642C37.0913 15.0454 37.3908 14.9856 37.6902 14.9856C40.6845 14.4771 41.8822 14.0882 43.3794 12.8916C45.7748 10.8575 46.3737 7.80637 43.6788 6.37053C42.4811 5.80218 37.9896 5.08426 34.097 7.68672C34.097 7.80637 30.2044 10.2593 30.2044 14.8958C30.2044 17.9171 31.7016 19.9512 34.097 20.9683C35.5942 21.5665 37.3908 21.8357 39.4868 21.5665C42.1817 21.3272 45.176 19.6521 46.6731 18.5154C47.5714 17.9171 47.8708 18.1564 48.1703 18.5154C53.2606 24.5878 60.4469 20.699 63.4412 18.4256C64.3395 17.8573 64.6389 18.3658 64.9384 18.7247C66.1361 20.5196 67.9327 21.6263 71.5258 21.6862C76.3167 21.8357 80.5087 17.7974 80.8082 12.5028ZM36.7919 13.3703C35.5942 12.084 39.1874 6.72949 41.2834 7.29784C42.4811 7.53715 42.7805 8.46447 42.1817 9.84048C41.5828 11.6353 37.6902 14.1779 36.7919 13.3703ZM78.1133 13.9685C76.9156 19.7119 70.0287 20.9982 69.4298 15.4343C69.1304 10.7678 73.6218 5.95174 77.215 8.40464C78.4127 9.30204 78.7122 11.6353 78.1133 13.9685ZM99.0734 12.3831C96.0791 12.3831 93.6837 13.9685 93.0848 17.4385C92.1865 22.6434 99.9717 23.7203 103.565 18.9641C104.164 18.4256 103.565 17.7376 102.966 18.276C101.469 19.5025 99.9717 20.3999 98.774 20.0409C97.5763 19.8016 96.678 18.0667 97.5763 18.0667C101.169 17.588 102.068 15.7035 102.367 15.1351C102.667 13.3703 101.469 12.3831 99.0734 12.3831ZM100.271 14.4771C99.9717 15.7035 98.774 16.7804 97.5763 16.9299C96.678 16.9299 97.5763 14.4471 98.774 13.8788C99.6723 13.2506 100.271 13.6694 100.271 14.4771ZM84.7008 20.9084C86.1979 22.2844 89.7911 22.2844 90.9888 21.1178C92.486 20.1606 92.7854 18.0966 91.2882 16.8701C89.4916 15.8232 88.8928 14.9856 88.8928 14.4471C88.8928 13.0113 90.9888 13.3104 90.3899 14.3873C89.7911 15.4642 91.5877 16.5411 92.486 15.0454C92.7854 14.5967 92.7854 14.0882 92.486 13.6096C91.5877 11.9942 88.8928 12.084 87.0962 12.7421C85.0002 13.5198 84.7008 15.8531 86.4973 17.1393C87.6951 17.947 88.5934 18.5154 88.2939 19.5324C88.2939 20.699 86.7968 20.5196 86.7968 19.4427C86.7968 18.1564 85.8985 17.588 85.0002 18.0667C83.8025 18.5752 84.1019 20.1008 84.7008 20.9084ZM81.1076 18.5154C80.2093 18.5154 79.6104 19.2333 79.6104 20.1606C79.6104 21.1178 80.2093 21.8357 81.1076 21.8357C82.0059 21.8357 82.9042 21.1178 82.9042 20.1606C82.9042 19.2333 82.0059 18.5154 81.1076 18.5154Z" fill="black"/>
<path fill-rule="evenodd" clip-rule="evenodd" d="M14.2141 3.79793C12.0882 0.148503 7.35719 -1.07795 3.76403 1.03095C-3.66184 5.33847 0.679896 16.5261 9.99218 17.6628C9.99218 17.6628 10.9803 17.7824 11.3995 17.7824C11.7588 17.7824 11.9085 17.4833 11.5492 17.3636C10.2916 16.9449 9.54304 16.2568 9.15378 15.18C14.3639 13.9236 16.8192 8.32981 14.2141 3.81289" fill="black"/>
<path fill-rule="evenodd" clip-rule="evenodd" d="M14.0982 6.97483C13.7688 3.80401 11.1937 1.3212 8.01978 1.14172V6.97483H14.0982Z" fill="#51A7D8"/>
<path fill-rule="evenodd" clip-rule="evenodd" d="M8.01978 14.1838C11.4033 13.9744 14.0683 11.1925 14.1282 7.75244H8.01978V14.1838Z" fill="#C3DA4A"/>
<path fill-rule="evenodd" clip-rule="evenodd" d="M1.13672 7.75244C1.18762 11.1925 3.87651 13.9744 7.2451 14.1838V7.75244H1.13672Z" fill="#ED2281"/>
<path fill-rule="evenodd" clip-rule="evenodd" d="M7.24201 1.14136C4.06805 1.32712 1.49295 3.79467 1.16357 6.97446H7.24201V1.14136Z" fill="#F9C63C"/>
</svg>
